<?xml version="1.0" encoding="UTF-8" standalone="no"?>
<!-- Generator: Adobe Illustrator 16.0.4, SVG Export Plug-In . SVG Version: 6.00 Build 0)  -->

<svg
   xmlns:dc="http://purl.org/dc/elements/1.1/"
   xmlns:cc="http://creativecommons.org/ns#"
   xmlns:rdf="http://www.w3.org/1999/02/22-rdf-syntax-ns#"
   xmlns:svg="http://www.w3.org/2000/svg"
   xmlns="http://www.w3.org/2000/svg"
   xmlns:sodipodi="http://sodipodi.sourceforge.net/DTD/sodipodi-0.dtd"
   xmlns:inkscape="http://www.inkscape.org/namespaces/inkscape"
   version="1.1"
   id="Layer_1"
   x="0px"
   y="0px"
   width="347.633px"
   height="86.537px"
   viewBox="0 0 347.633 86.537"
   enable-background="new 0 0 347.633 86.537"
   xml:space="preserve"
   sodipodi:docname="OpenMRS-logo.svg"
   inkscape:version="0.92.3 (2405546, 2018-03-11)"><metadata
   id="metadata45"><rdf:RDF><cc:Work
       rdf:about=""><dc:format>image/svg+xml</dc:format><dc:type
         rdf:resource="http://purl.org/dc/dcmitype/StillImage" /></cc:Work></rdf:RDF></metadata><defs
   id="defs43" /><sodipodi:namedview
   pagecolor="#ffffff"
   bordercolor="#666666"
   borderopacity="1"
   objecttolerance="10"
   gridtolerance="10"
   guidetolerance="10"
   inkscape:pageopacity="0"
   inkscape:pageshadow="2"
   inkscape:window-width="1920"
   inkscape:window-height="1017"
   id="namedview41"
   showgrid="false"
   inkscape:zoom="3.2678141"
   inkscape:cx="141.09281"
   inkscape:cy="56.786986"
   inkscape:window-x="-8"
   inkscape:window-y="-8"
   inkscape:window-maximized="1"
   inkscape:current-layer="Layer_1" />
<g
   id="g26"
   style="fill:#ffffff">
	<g
   id="g10"
   style="fill:#ffffff">
		<path
   d="M23.436,23.473c5.069-5.068,12.073-8.203,19.811-8.203c7.717,0,14.705,3.121,19.77,8.166l0.021-18.656    C57.107,1.725,50.376,0,43.247,0c-7.133,0-13.899,1.941-19.833,4.998L23.436,23.473z"
   id="path2"
   fill="#F26522"
   style="fill:#ffffff" />
		<path
   d="M63.038,63.064c-5.068,5.068-12.07,8.203-19.808,8.203c-7.717,0-14.705-3.119-19.773-8.166l-0.021,18.656    c5.934,3.055,12.662,4.779,19.794,4.779c7.133,0,13.863-1.725,19.794-4.779L63.038,63.064z"
   id="path4"
   fill="#EEA616"
   style="fill:#ffffff" />
		<path
   d="M23.474,63.088c-5.068-5.068-8.205-12.068-8.205-19.807c0-7.719,3.121-14.705,8.167-19.773l-18.657-0.02    C1.725,29.42,0,36.148,0,43.281s1.725,13.863,4.782,19.793L23.474,63.088z"
   id="path6"
   fill="#5B57A6"
   style="fill:#ffffff" />
		<path
   d="M63.027,23.434c5.069,5.068,8.205,12.074,8.205,19.812c0,7.717-3.121,14.703-8.167,19.77l18.657,0.02    c3.055-5.93,4.779-12.66,4.779-19.789c0-7.135-1.725-13.865-4.781-19.799L63.027,23.434z"
   id="path8"
   fill="#009384"
   style="fill:#ffffff" />
	</g>
	<path
   d="M104.957,43.271c0-11.555,8.37-20.084,19.98-20.084c11.608,0,19.98,8.529,19.98,20.084c0,11.557-8.372,20.09-19.98,20.09   C113.327,63.361,104.957,54.828,104.957,43.271z M140.056,43.271c0-8.803-6.156-15.875-15.119-15.875   c-8.965,0-15.119,7.072-15.119,15.875s6.154,15.879,15.119,15.879C133.9,59.15,140.056,52.074,140.056,43.271z"
   id="path12"
   style="fill:#ffffff" />
	<path
   d="M150.155,36.533h4.275v3.727h0.111c2.358-2.74,5.483-4.387,9.211-4.387c8.063,0,13.491,5.705,13.491,13.492   c0,7.678-5.647,13.49-12.832,13.49c-4.608,0-8.283-2.305-9.871-5.211h-0.111v16.688h-4.275V36.533z M163.533,58.906   c5.541,0,9.106-4.166,9.106-9.541s-3.565-9.543-9.106-9.543s-9.104,4.168-9.104,9.543S157.993,58.906,163.533,58.906z"
   id="path14"
   style="fill:#ffffff" />
	<path
   d="M205.707,57.537c-3.02,3.893-6.637,5.318-11.409,5.318c-8.061,0-12.995-6.031-12.995-13.49   c0-7.951,5.594-13.492,13.162-13.492c7.24,0,12.172,4.938,12.172,13.439v1.369H185.91c0.327,4.441,3.728,8.225,8.388,8.225   c3.673,0,6.143-1.314,8.171-3.893L205.707,57.537z M202.031,47.061c-0.164-4.332-3.018-7.238-7.733-7.238   c-4.714,0-7.839,2.906-8.388,7.238H202.031z"
   id="path16"
   style="fill:#ffffff" />
	<path
   d="M212.176,42.621c0-2.361-0.219-4.387-0.219-6.088h4.057c0,1.371,0.111,2.795,0.111,4.221h0.11   c1.151-2.52,4.333-4.881,8.553-4.881c6.747,0,9.761,4.279,9.761,10.475v15.848h-4.275V46.789c0-4.279-1.867-6.967-5.869-6.967   c-5.538,0-7.953,4.004-7.953,9.873v12.5h-4.275V42.621z"
   id="path18"
   style="fill:#ffffff" />
	<path
   d="M243.729,24.158h6.75l12.962,29.969h0.108l13.062-29.969h6.59v38.229h-4.533V30.312h-0.107l-13.719,32.074h-2.756   l-13.715-32.074h-0.107v32.074h-4.535V24.158z"
   id="path20"
   style="fill:#ffffff" />
	<path
   d="M292.709,24.158h9.771c7.398,0,15.228,1.078,15.228,10.527c0,5.562-3.617,9.182-9.556,10.1l10.853,17.602h-5.561   l-10.368-17.17h-5.834v17.17h-4.533V24.158z M297.243,41.006h4.049c5.023,0,11.56,0,11.56-6.32c0-5.506-4.806-6.314-9.235-6.314   h-6.373V41.006z"
   id="path22"
   style="fill:#ffffff" />
	<path
   d="M343.261,30.904c-1.516-2.43-4.213-3.508-6.969-3.508c-3.998,0-8.151,1.891-8.151,6.426c0,3.51,1.943,5.078,8.044,7.021   c5.94,1.891,11.448,3.834,11.448,11.338c0,7.615-6.535,11.18-13.444,11.18c-4.429,0-9.182-1.459-11.773-5.293l3.887-3.186   c1.62,2.811,4.86,4.268,8.156,4.268c3.886,0,8.314-2.27,8.314-6.645c0-4.697-3.185-5.508-9.99-7.775   c-5.399-1.783-9.501-4.16-9.501-10.529c0-7.344,6.316-11.014,13.011-11.014c4.267,0,7.885,1.186,10.69,4.479L343.261,30.904z"
   id="path24"
   style="fill:#ffffff" />
</g>
<g
   id="g28">
</g>
<g
   id="g30">
</g>
<g
   id="g32">
</g>
<g
   id="g34">
</g>
<g
   id="g36">
</g>
<g
   id="g38">
</g>
</svg>